<svg width="999" height="192" viewBox="0 0 999 192" fill="none" xmlns="http://www.w3.org/2000/svg">
<path d="M743.447 37.8239V179.849H709.17V37.4531H671.201V7.41638H781.409V37.8239H743.447Z" fill="#004A8F"/>
<path d="M137.115 7.04614V179.479H102.837V37.4537H34.2788V179.479H0V7.04614H137.115Z" fill="#004A8F"/>
<path d="M221.153 7.04614C240.32 7.04614 253.957 9.2711 266.489 20.3958C280.127 33.0038 283.813 49.6908 283.813 61.928C283.813 68.6028 282.707 87.1439 269.807 100.494C260.223 110.135 246.217 115.698 226.313 115.698H205.672V179.479H171.394V7.04614H221.153ZM205.304 86.7734H218.204C224.47 86.7734 232.948 86.7734 239.951 81.2109C246.217 76.3902 249.165 68.6028 249.165 61.1864C249.165 51.545 244.374 45.2409 239.582 41.5327C232.579 36.712 223.733 35.9703 215.993 35.9703H205.304V86.7734Z" fill="#004A8F"/>
<path d="M636.923 173.545C626.603 179.108 612.964 183.557 594.535 183.557C564.311 183.557 546.25 173.175 531.875 159.454C511.971 140.171 504.231 119.035 504.231 93.4475C504.231 62.2984 517.131 39.6782 531.875 25.9577C549.199 9.6415 570.209 3.33752 594.904 3.33752C607.068 3.33752 621.443 5.56247 636.923 14.0914V53.3987C621.073 35.2283 601.538 34.1159 595.641 34.1159C561.362 34.1159 538.878 62.6693 538.878 94.1893C538.878 132.384 568.365 153.15 597.115 153.15C612.964 153.15 627.339 146.105 637.292 134.238V173.545H636.923Z" fill="#004A8F"/>
<path d="M849.965 7.04614V179.479H815.687V7.04614H849.965Z" fill="#004A8F"/>
<path d="M934.377 7.04614C953.542 7.04614 967.181 9.2711 979.707 20.3958C993.714 32.633 997.037 49.6908 997.037 61.928C997.037 68.6028 995.925 87.1439 983.03 100.494C973.444 110.135 959.437 115.698 939.535 115.698H918.896V179.479H884.611V7.04614H934.377ZM918.527 86.7734H931.422C937.693 86.7734 946.166 86.7734 953.173 81.2109C959.437 76.3902 962.384 68.6028 962.384 61.1864C962.384 51.545 957.595 45.2409 952.805 41.5327C945.798 36.712 936.956 35.9703 929.212 35.9703H918.527V86.7734Z" fill="#004A8F"/>
<path d="M376.698 94.1887C376.698 84.1768 384.439 76.3895 394.022 76.3895C403.605 76.3895 411.346 84.1768 411.346 93.8182C411.346 103.46 403.605 111.247 394.022 111.247V134.609C416.506 134.609 434.566 116.068 434.566 93.8182C434.566 71.1976 416.506 52.6566 394.022 52.6566C371.538 52.6566 353.108 70.8269 353.108 93.8182C353.108 93.8182 353.108 93.8182 353.108 94.1887H376.698Z" fill="#FECA08"/>
<path d="M454.102 63.7816C458.525 72.6811 461.106 82.6938 461.106 93.4476C461.106 130.53 431.25 160.937 394.023 160.937C357.164 160.937 326.939 130.901 326.939 93.4476C326.939 57.4776 354.952 28.1826 389.968 26.3285L406.555 0.741648C402.5 5.27882e-08 398.077 0 393.654 0C342.051 0 300.401 41.903 300.401 93.8181C300.401 145.734 342.051 187.636 393.654 187.636C445.256 187.636 486.907 145.734 486.907 93.8181C486.907 73.7935 480.641 54.8819 469.583 39.6781L454.102 63.7816Z" fill="#004A8F"/>
</svg>
