<svg width="999" height="324" viewBox="0 0 999 324" fill="none" xmlns="http://www.w3.org/2000/svg">
<path d="M650.685 0C579.752 0 516.363 36.7659 516.363 104.694C516.363 182.594 628.786 187.974 628.786 227.109C628.786 243.587 609.902 258.338 577.649 258.338C531.876 258.338 497.665 237.727 497.665 237.727L483.027 306.274C483.027 306.274 522.437 323.684 574.761 323.684C652.313 323.684 713.337 285.112 713.337 216.023C713.337 133.708 600.446 128.487 600.446 92.1631C600.446 79.2549 615.948 65.1115 648.109 65.1115C684.396 65.1115 714.001 80.1011 714.001 80.1011L728.327 13.8967C728.327 13.8967 696.114 0 650.685 0V0ZM1.71757 4.99657L0 14.9897C0 14.9897 29.8416 20.4512 56.7188 31.3456C91.3254 43.8383 93.7906 51.1109 99.6189 73.6993L163.13 318.531H248.267L379.426 4.99657H294.485L210.207 218.17L175.816 37.4742C172.663 16.7937 156.687 4.99657 137.132 4.99657H1.71757V4.99657ZM413.583 4.99657L346.949 318.531H427.948L494.347 4.99657H413.583V4.99657ZM865.342 4.99657C845.81 4.99657 835.462 15.4535 827.868 33.7268L709.199 318.531H794.141L810.575 271.063H914.058L924.052 318.531H999L933.615 4.99657H865.342V4.99657ZM876.389 89.7039L901.567 207.357H834.113L876.389 89.7039V89.7039Z" fill="#1434CB"/>
</svg>
